<?xml version="1.0" encoding="UTF-8" standalone="no"?>
<!-- Created with Inkscape (http://www.inkscape.org/) -->

<svg
   width="500"
   height="500"
   viewBox="0 0 500 500"
   version="1.1"
   id="svg5"
   inkscape:version="1.2.2 (b0a8486541, 2022-12-01)"
   sodipodi:docname="logo.svg"
   xmlns:inkscape="http://www.inkscape.org/namespaces/inkscape"
   xmlns:sodipodi="http://sodipodi.sourceforge.net/DTD/sodipodi-0.dtd"
   xmlns="http://www.w3.org/2000/svg"
   xmlns:svg="http://www.w3.org/2000/svg">
  <sodipodi:namedview
     id="namedview7"
     pagecolor="#ffffff"
     bordercolor="#666666"
     borderopacity="1.0"
     inkscape:showpageshadow="2"
     inkscape:pageopacity="0.0"
     inkscape:pagecheckerboard="0"
     inkscape:deskcolor="#d1d1d1"
     inkscape:document-units="px"
     showgrid="false"
     inkscape:zoom="0.80367663"
     inkscape:cx="57.236951"
     inkscape:cy="228.9478"
     inkscape:window-width="1918"
     inkscape:window-height="1020"
     inkscape:window-x="0"
     inkscape:window-y="29"
     inkscape:window-maximized="1"
     inkscape:current-layer="text186" />
  <defs
     id="defs2" />
  <g
     inkscape:label="Layer 1"
     inkscape:groupmode="layer"
     id="layer1">
    <g
       aria-label="*"
       id="text186"
       style="font-size:85.3333px;line-height:1.25">
      <path
         d="m 209.77959,435.67488 q 0,-11.01925 14.32503,-58.40226 15.42704,-48.48477 15.42704,-111.2947 -42.97521,26.44629 -70.52338,57.30024 -27.5483,30.85396 -41.87333,45.17912 -13.22314,13.22314 -37.465525,13.22314 -39.669428,0 -39.669428,-38.56754 0,-18.7327 14.325028,-27.54817 14.325157,-9.91736 35.261757,-13.22315 20.936598,-4.40767 58.402128,-17.63081 38.56754,-14.32516 73.82917,-35.26176 -42.97509,-22.03848 -93.66389,-34.15974 -49.586651,-12.12126 -69.421365,-22.03861 -18.732828,-9.91736 -18.732828,-36.36365 0,-16.5288 11.019242,-27.54817 11.019372,-12.12112 26.446286,-12.12112 17.630815,0 30.853955,9.91735 14.32516,9.91736 24.24251,24.24239 9.91736,14.32503 35.26163,37.46553 26.44629,23.14049 61.70804,44.07709 0,-62.80992 -14.32515,-111.29469 -13.22315,-48.484904 -13.22315,-59.504146 0,-16.528928 11.01937,-27.548171 11.01925,-11.019242 27.54818,-11.019242 16.52892,0 27.54817,12.121128 12.12125,11.019242 12.12125,28.650185 0,14.325028 -15.42704,60.606026 -14.32503,45.17899 -14.32503,110.19281 38.56742,-24.24238 67.2176,-55.09647 29.75207,-31.95584 45.17918,-48.48477 16.52893,-16.52893 36.36351,-16.52893 17.63095,0 28.65019,12.12126 11.01924,12.12113 11.01924,30.85396 0,23.1405 -22.03848,33.05786 -22.03862,9.91735 -70.52339,24.24238 -48.48496,13.22314 -87.05238,35.26163 33.05773,20.93673 70.52339,34.15987 37.46559,12.12113 58.40219,15.42691 22.03861,3.30579 36.36364,13.22315 Q 450,323.27816 450,342.01099 q 0,18.7327 -11.01938,29.75207 -9.91735,11.01924 -27.54817,11.01924 -23.1405,0 -38.56741,-13.22314 -15.42711,-14.32503 -45.17918,-45.17898 -28.65018,-31.95597 -67.2176,-58.40226 0,62.80993 15.42705,112.39671 15.42691,48.48477 15.42691,53.99446 0,17.63081 -13.22314,30.85396 -12.12113,13.22314 -29.75207,13.22314 -15.42692,0 -27.54818,-12.12126 -11.01924,-12.12113 -11.01924,-28.65005 z"
         style="font-family:FreeSerif;-inkscape-font-specification:FreeSerif;stroke-width:12.9132"
         id="path396" />
    </g>
  </g>
</svg>
